<svg version="1.1" xmlns="http://www.w3.org/2000/svg" xmlns:xlink="http://www.w3.org/1999/xlink" xmlns:sketch="http://www.bohemiancoding.com/sketch/ns">
    <!-- Generator: Sketch 3.5.1 (25234) - http://www.bohemiancoding.com/sketch -->

   
      <symbol id="compte" viewBox="0 0 30 36">
        <path d="M13.1911341,0 C9.67245379,0 7.43112354,2.25317781 7.43112354,5.01671031 C7.43112354,6.90172181 7.85673758,9.1833373 8.76434174,11.05413 C9.6861669,12.9249226 11.1478819,14.4270412 13.1906262,14.4839165 L13.2048472,14.4839165 C15.2475914,14.4270412 16.7087985,12.9249226 17.6311316,11.05413 C18.5392436,9.1833373 18.9648577,6.90172181 18.9648577,5.01671031 C18.9653656,2.25317781 16.7235274,0 13.1911341,0 L13.1911341,0 L13.1911341,0 Z M13.1918016,1.45918514 C16.0739552,1.45918514 17.6677455,3.14083303 17.6677455,5.2428929 C17.6677455,6.82274723 17.2851628,8.79745102 16.5199974,10.3512864 C15.7676151,11.8927969 14.6837829,12.988333 13.2041283,13.039458 L13.1913451,13.039458 C11.7121469,12.9887895 10.615075,11.8927969 9.86269277,10.3512864 C9.11031052,8.79745102 8.7277278,6.82274723 8.7277278,5.2428929 C8.72818434,3.14083303 10.3224312,1.45918514 13.1918016,1.45918514 L13.1918016,1.45918514 L13.1918016,1.45918514 Z M13.1911341,15.5462668 C6.96284652,15.5462668 1.54363198,19.2172657 0.138800915,24.3898754 C0.124579921,24.4035864 0.124579921,24.4183131 0.124579921,24.4320241 C-0.187774057,26.3734032 0.0961379329,27.734349 0.876261039,28.6976752 C1.65638414,29.675728 2.86262918,30.1997937 4.32383633,30.6817107 C7.00500161,31.5323018 10.0269629,32 13.1906262,32 C16.3680026,32 19.3904717,31.5323018 22.085858,30.6817107 C23.5328441,30.1997937 24.7528023,29.675728 25.5329254,28.6976752 C26.3135564,27.734349 26.5827395,26.3734032 26.2708934,24.4320241 L26.2708934,24.3898754 C24.8670781,19.2172657 19.4189137,15.5462668 13.1911341,15.5462668 L13.1911341,15.5462668 L13.1911341,15.5462668 Z M13.1913343,16.6771007 C18.8364285,16.6771007 23.6945129,19.9985549 24.9430407,24.5256028 C25.2282102,26.2606473 24.9838486,27.2777759 24.4003926,28.0097781 C23.8169367,28.7417804 22.799168,29.2158575 21.4554218,29.6501044 C18.971969,30.4360232 16.1625388,30.8833849 13.1913343,30.8833849 C10.2327609,30.8833849 7.42381644,30.4360232 4.94084947,29.6501044 C3.5971033,29.2158575 2.59293724,28.7417804 2.0094813,28.0097781 C1.41242272,27.2777759 1.16806107,26.2606473 1.43962799,24.5256028 C2.70175833,19.9985549 7.5598428,16.6771007 13.1913343,16.6771007 L13.1913343,16.6771007 L13.1913343,16.6771007 Z" id="Shape" fill="#FFFFFF" sketch:type="MSShapeGroup"></path>
      </symbol>
      <symbol id="velo_blanc" viewBox="0 0 155 100">
        <g sketch:type="MSLayerGroup" transform="translate(3.000000, 2.000000)" fill="#FFFFFF">
            <path d="M117.443606,32.5794265 C110.30628,32.5794265 103.736735,35.0365693 98.4686818,39.1245693 C96.1478939,29.6354265 96.2280379,20.9382836 96.2348106,20.7359979 L96.1964318,10.4342836 L102.264795,10.438855 C103.190402,10.438855 103.928629,9.71771216 104.029091,8.80914074 C104.069727,8.73142645 104.134068,8.67999788 104.162288,8.59885502 C105.717758,4.60342645 110.199045,2.63199788 114.14303,4.19428359 C118.097174,5.76342645 120.045462,10.2994265 118.493379,14.3017122 C117.740477,16.2365693 116.291114,17.7657122 114.406038,18.5965693 C113.495106,18.9965693 113.075197,20.078855 113.475917,21.0022836 C113.771659,21.6902836 114.438773,22.0982836 115.132977,22.0982836 C115.371152,22.0982836 115.619485,22.0491407 115.854273,21.9462836 C118.617545,20.7257122 120.750955,18.4845693 121.851523,15.6319979 C124.129417,9.76114074 121.266811,3.10056931 115.462583,0.788569307 C109.827674,-1.44800212 103.460182,1.23542645 101.017485,6.78399788 L94.3813409,6.77714074 C93.9016061,6.77714074 93.4421894,6.96914074 93.1046818,7.31314074 C92.7660455,7.65714074 92.5752803,8.12799788 92.5752803,8.61256931 L92.619303,19.8514265 L52.7945379,19.7245693 L52.8148561,13.9725693 C54.3827424,13.4879979 57.6201061,12.7542836 61.441053,14.0011407 C61.9738409,14.1817122 62.5483939,14.0502836 63.0123258,13.7291407 C63.2696894,13.550855 65.5317803,11.8959979 65.3726212,9.54171216 C65.3037652,8.50628359 64.7416288,7.01942645 62.4569621,5.86285502 C62.2853864,5.77828359 62.0991364,5.71085502 61.9083712,5.68228359 C61.8158106,5.66628359 52.4096212,4.28914074 43.1592045,2.48342645 C42.5496591,2.36914074 41.9378561,2.56114074 41.512303,3.01485502 C41.1623788,3.38514074 38.1327121,6.72685502 38.7580606,10.3805693 C38.9894621,11.7485693 39.8439545,13.6731407 42.8555606,15.1862836 C43.1185682,15.2754265 45.2135985,15.8822836 49.1993485,14.9382836 L49.1835455,20.8022836 L42.7404242,34.7965693 C39.1915152,33.3862836 35.3434773,32.5805693 31.3091894,32.5805693 C14.0455076,32.5805693 0,46.8079979 0,64.2891407 C0,81.7725693 14.0455076,95.9931407 31.3091894,95.9931407 C46.583947,95.9931407 59.3189318,84.8617122 62.0607576,70.1954265 L65.2179773,70.1977122 C65.1355758,69.7062836 65.091553,69.2022836 65.091553,68.6845693 C65.091553,68.0034265 65.1671818,67.342855 65.3071515,66.702855 L62.5088864,66.702855 C62.5698409,65.9062836 62.6296667,65.1074265 62.6296667,64.2902836 C62.6296667,52.1919979 55.8975758,41.662855 46.0285833,36.3142836 L51.0234697,25.4605693 L68.4903333,61.5691407 C69.4328712,60.814855 70.5221515,60.2411407 71.7141515,59.9177122 L53.8736591,23.0239979 L91.5932348,22.8297122 L75.6524924,59.7417122 C76.8783561,59.9622836 78.0105303,60.4319979 79.00725,61.0971407 L93.0256667,28.7874265 C93.3868788,32.4914265 94.072053,37.1074265 95.36,41.8331407 C89.6573636,47.5782836 86.1253864,55.5245693 86.1253864,64.2914265 C86.1253864,81.7725693 100.17428,95.9931407 117.444735,95.9931407 C134.70503,95.9931407 148.757311,81.7725693 148.757311,64.2914265 C148.756182,46.806855 134.707288,32.5794265 117.443606,32.5794265 Z M31.3069318,92.3394265 C16.0299167,92.3394265 3.60534848,79.7531407 3.60534848,64.286855 C3.60534848,48.8194265 16.033303,36.2354265 31.3069318,36.2354265 C34.8016591,36.2354265 38.1270682,36.918855 41.2086591,38.1165693 L27.5582273,67.7714265 C27.2986061,68.3359979 27.3403712,68.8982836 27.6756212,69.4274265 C28.0018409,69.9542836 28.5763939,70.1702836 29.1960985,70.1702836 L29.1994848,70.1702836 L58.3888106,70.1931407 C55.7034242,82.830855 44.5859924,92.3394265 31.3069318,92.3394265 Z M59.0152879,64.2914265 C59.0152879,65.1062836 58.9644924,65.9097122 58.8956364,66.7085693 L32.0282273,66.7371407 L44.5035909,39.6274265 C53.1410758,44.3805693 59.0152879,53.6571407 59.0152879,64.2914265 Z M50.3495833,10.8194265 C46.509447,12.0982836 44.4313485,11.8011407 44.2180076,11.798855 C44.2010758,11.798855 44.1988182,11.8011407 44.2010758,11.8057122 C42.5203106,10.9417122 42.3645379,10.0582836 42.316,9.76114074 C42.1128182,8.60914074 42.8882955,7.18056931 43.5350909,6.26971216 C51.5664167,7.80799788 59.4442273,8.99999788 61.0843561,9.24571216 C61.595697,9.53828359 61.744697,9.74399788 61.7672727,9.74399788 C61.7469545,9.83771216 61.6543939,9.98056931 61.5279697,10.1279979 C55.7034242,8.58971216 51.1837576,10.4399979 50.3495833,10.8194265 Z M117.443606,92.3394265 C102.159818,92.3394265 89.7329924,79.7531407 89.7329924,64.286855 C89.7329924,57.230855 92.3416212,50.790855 96.6061818,45.8559979 C99.8593485,55.1417122 105.76178,64.0034265 116.466076,66.4217122 C116.593629,66.4502836 116.725697,66.4662836 116.856636,66.4662836 C117.685167,66.4662836 118.432424,65.8834265 118.615288,65.0377122 C118.834273,64.0514265 118.221341,63.0754265 117.250583,62.8525693 C107.558811,60.6674265 102.344939,51.902855 99.5263561,42.9279979 C104.363212,38.7645693 110.612182,36.2365693 117.444735,36.2365693 C132.718364,36.2365693 145.142932,48.8217122 145.142932,64.2925693 C145.141803,79.7531407 132.717235,92.3394265 117.443606,92.3394265 Z" id="Shape" sketch:type="MSShapeGroup"></path>
            <path d="M83.4174242,67.944 C83.4174242,63.5485714 80.3369621,59.8811429 76.2428485,59.04 L76.2428485,46.848 L79.2646136,46.848 C79.8989924,46.848 80.4171061,46.3234286 80.4171061,45.6811429 L80.4171061,41.1657143 C80.4171061,40.5234286 79.9001212,40 79.2646136,40 L69.62025,40 C68.9858712,40 68.4677576,40.5222857 68.4677576,41.1657143 L68.4677576,45.6811429 C68.4677576,46.3234286 68.9847424,46.848 69.62025,46.848 L72.6454015,46.848 L72.6454015,59.04 C68.5512879,59.8811429 65.469697,63.544 65.469697,67.944 C65.469697,72.3394286 68.5512879,76.0034286 72.6454015,76.8457143 L72.6454015,89.0365714 L69.62025,89.0365714 C68.9858712,89.0365714 68.4677576,89.5588571 68.4677576,90.2022857 L68.4677576,94.72 C68.4677576,95.3645714 68.9847424,95.8857143 69.62025,95.8857143 L79.2646136,95.8857143 C79.8989924,95.8857143 80.4171061,95.3657143 80.4171061,94.72 L80.4171061,90.2022857 C80.4171061,89.56 79.9001212,89.0365714 79.2646136,89.0365714 L76.2428485,89.0365714 L76.2428485,76.8457143 C80.3369621,76.0034286 83.4174242,72.3371429 83.4174242,67.944 Z M74.3476136,73.256 C71.4172803,73.256 69.0445682,70.8514286 69.0445682,67.888 C69.0445682,64.9211429 71.4184091,62.5154286 74.3476136,62.5154286 C77.2768182,62.5154286 79.6495303,64.9211429 79.6495303,67.888 C79.6495303,70.8525714 77.2768182,73.256 74.3476136,73.256 Z" id="pedalier" sketch:type="MSShapeGroup"></path>
    </g>
      </symbol>
      <symbol id="velo_bleue" viewBox="0 0 140 92">
          
        <g  sketch:type="MSLayerGroup" transform="translate(4.000000, 3.000000)" fill="url(#linearGradient-1)">
            <path d="M104.21,29.156 C97.887,29.156 92.067,31.306 87.4,34.883 C85.344,26.58 85.415,18.97 85.421,18.793 L85.387,9.779 L90.763,9.783 C91.583,9.783 92.237,9.152 92.326,8.357 C92.362,8.289 92.419,8.244 92.444,8.173 C93.822,4.677 97.792,2.952 101.286,4.319 C104.789,5.692 106.515,9.661 105.14,13.163 C104.473,14.856 103.189,16.194 101.519,16.921 C100.712,17.271 100.34,18.218 100.695,19.026 C100.957,19.628 101.548,19.985 102.163,19.985 C102.374,19.985 102.594,19.942 102.802,19.852 C105.25,18.784 107.14,16.823 108.115,14.327 C110.133,9.19 107.597,3.362 102.455,1.339 C97.463,-0.618 91.822,1.73 89.658,6.585 L83.779,6.579 C83.354,6.579 82.947,6.747 82.648,7.048 C82.348,7.349 82.179,7.761 82.179,8.185 L82.218,18.019 L46.937,17.908 L46.955,12.875 C48.344,12.451 51.212,11.809 54.597,12.9 C55.069,13.058 55.578,12.943 55.989,12.662 C56.217,12.506 58.221,11.058 58.08,8.998 C58.019,8.092 57.521,6.791 55.497,5.779 C55.345,5.705 55.18,5.646 55.011,5.621 C54.929,5.607 46.596,4.402 38.401,2.822 C37.861,2.722 37.319,2.89 36.942,3.287 C36.632,3.611 33.948,6.535 34.502,9.732 C34.707,10.929 35.464,12.613 38.132,13.937 C38.365,14.015 40.221,14.546 43.752,13.72 L43.738,18.851 L38.03,31.096 C34.886,29.862 31.477,29.157 27.903,29.157 C12.609,29.157 0.166,41.606 0.166,56.902 C0.166,72.2 12.609,84.643 27.903,84.643 C41.435,84.643 52.717,74.903 55.146,62.07 L57.943,62.072 C57.87,61.642 57.831,61.201 57.831,60.748 C57.831,60.152 57.898,59.574 58.022,59.014 L55.543,59.014 C55.597,58.317 55.65,57.618 55.65,56.903 C55.65,46.317 49.686,37.104 40.943,32.424 L45.368,22.927 L60.842,54.522 C61.677,53.862 62.642,53.36 63.698,53.077 L47.893,20.795 L81.309,20.625 L67.187,52.923 C68.273,53.116 69.276,53.527 70.159,54.109 L82.578,25.838 C82.898,29.079 83.505,33.118 84.646,37.253 C79.594,42.28 76.465,49.233 76.465,56.904 C76.465,72.2 88.911,84.643 104.211,84.643 C119.502,84.643 131.951,72.2 131.951,56.904 C131.95,41.605 119.504,29.156 104.21,29.156 Z M27.901,81.446 C14.367,81.446 3.36,70.433 3.36,56.9 C3.36,43.366 14.37,32.355 27.901,32.355 C30.997,32.355 33.943,32.953 36.673,34.001 L24.58,59.949 C24.35,60.443 24.387,60.935 24.684,61.398 C24.973,61.859 25.482,62.048 26.031,62.048 L26.034,62.048 L51.893,62.068 C49.514,73.126 39.665,81.446 27.901,81.446 Z M52.448,56.904 C52.448,57.617 52.403,58.32 52.342,59.019 L28.54,59.044 L39.592,35.323 C47.244,39.482 52.448,47.599 52.448,56.904 Z M44.771,10.116 C41.369,11.235 39.528,10.975 39.339,10.973 C39.324,10.973 39.322,10.975 39.324,10.979 C37.835,10.223 37.697,9.45 37.654,9.19 C37.474,8.182 38.161,6.932 38.734,6.135 C45.849,7.481 52.828,8.524 54.281,8.739 C54.734,8.995 54.866,9.175 54.886,9.175 C54.868,9.257 54.786,9.382 54.674,9.511 C49.514,8.165 45.51,9.784 44.771,10.116 Z M104.21,81.446 C90.67,81.446 79.661,70.433 79.661,56.9 C79.661,50.726 81.972,45.091 85.75,40.773 C88.632,48.898 93.861,56.652 103.344,58.768 C103.457,58.793 103.574,58.807 103.69,58.807 C104.424,58.807 105.086,58.297 105.248,57.557 C105.442,56.694 104.899,55.84 104.039,55.645 C95.453,53.733 90.834,46.064 88.337,38.211 C92.622,34.568 98.158,32.356 104.211,32.356 C117.742,32.356 128.749,43.368 128.749,56.905 C128.748,70.433 117.741,81.446 104.21,81.446 Z" id="Shape" sketch:type="MSShapeGroup"></path>
            <path d="M73.733,60.75 C73.733,56.904 71.004,53.695 67.377,52.959 L67.377,42.291 L70.054,42.291 C70.616,42.291 71.075,41.832 71.075,41.27 L71.075,37.319 C71.075,36.757 70.617,36.299 70.054,36.299 L61.51,36.299 C60.948,36.299 60.489,36.756 60.489,37.319 L60.489,41.27 C60.489,41.832 60.947,42.291 61.51,42.291 L64.19,42.291 L64.19,52.959 C60.563,53.695 57.833,56.9 57.833,60.75 C57.833,64.596 60.563,67.802 64.19,68.539 L64.19,79.206 L61.51,79.206 C60.948,79.206 60.489,79.663 60.489,80.226 L60.489,84.179 C60.489,84.743 60.947,85.199 61.51,85.199 L70.054,85.199 C70.616,85.199 71.075,84.744 71.075,84.179 L71.075,80.226 C71.075,79.664 70.617,79.206 70.054,79.206 L67.377,79.206 L67.377,68.539 C71.004,67.802 73.733,64.594 73.733,60.75 Z M65.698,65.398 C63.102,65.398 61,63.294 61,60.701 C61,58.105 63.103,56 65.698,56 C68.293,56 70.395,58.105 70.395,60.701 C70.395,63.295 68.293,65.398 65.698,65.398 Z" id="pedalier" sketch:type="MSShapeGroup"></path>
    </g>
          
      </symbol>

    <symbol viewBox="0 0 124 124" id="abonnement" sketch:type="MSLayerGroup" fill="url(#linearGradient-1)">
        <circle id="Oval" sketch:type="MSShapeGroup" cx="46.6" cy="26.6" r="3.6"></circle>
        <path d="M56.1,25.2 C55.3,25.2 54.7,25.8 54.7,26.6 C54.7,27.4 55.3,28 56.1,28 C56.9,28 57.5,27.4 57.5,26.6 C57.4,25.8 56.8,25.2 56.1,25.2 L56.1,25.2 Z" id="Shape" sketch:type="MSShapeGroup"></path>
        <path d="M3.67647059,3.67647059 L26.7181373,3.67647059 L26.7181373,0 L0,0 L0,26.7181373 L3.67647059,26.7181373 L3.67647059,3.67647059 Z" id="Shape" sketch:type="MSShapeGroup"></path>
        <path d="M97,0 L97,3.67647059 L120.042892,3.67647059 L120.042892,26.7181373 L123.719363,26.7181373 L123.719363,0 L97,0 Z" id="Shape" sketch:type="MSShapeGroup"></path>
        <path d="M3.67647059,97 L0,97 L0,123.718137 L26.7169118,123.718137 L26.7169118,120.041667 L3.67647059,120.041667 L3.67647059,97 Z" id="Shape" sketch:type="MSShapeGroup"></path>
        <path d="M120.042892,120.041667 L97,120.041667 L97,123.718137 L123.719363,123.718137 L123.719363,97 L120.042892,97 L120.042892,120.041667 Z" id="Shape" sketch:type="MSShapeGroup"></path>
        <path d="M85.3,16 L39.1,16 C36.2715729,16 34,18.2715729 34,21.1 L34,103.9 C34,106.728427 36.2715729,109 39.1,109 L85.3,109 C88.1284271,109 90.4,106.728427 90.4,103.9 L90.4,21.1 C90.4,18.2715729 88.1284271,16 85.3,16 Z M85.3,19 C86.4715729,19 87.4,19.9284271 87.4,21.1 L87.4,103.9 C87.4,105.071573 86.4715729,106 85.3,106 L39.1,106 C37.9284271,106 37,105.071573 37,103.9 L37,21.1 C37,19.9284271 37.9284271,19 39.1,19 L85.3,19 Z" id="Path" sketch:type="MSShapeGroup"></path>
    </symbol>

    <symbol viewBox="0 0 124 124" id="abonnement-white" sketch:type="MSLayerGroup" fill="#fff">
        <circle id="Oval" sketch:type="MSShapeGroup" cx="46.6" cy="26.6" r="3.6"></circle>
        <path d="M56.1,25.2 C55.3,25.2 54.7,25.8 54.7,26.6 C54.7,27.4 55.3,28 56.1,28 C56.9,28 57.5,27.4 57.5,26.6 C57.4,25.8 56.8,25.2 56.1,25.2 L56.1,25.2 Z" id="Shape" sketch:type="MSShapeGroup"></path>
        <path d="M3.67647059,3.67647059 L26.7181373,3.67647059 L26.7181373,0 L0,0 L0,26.7181373 L3.67647059,26.7181373 L3.67647059,3.67647059 Z" id="Shape" sketch:type="MSShapeGroup"></path>
        <path d="M97,0 L97,3.67647059 L120.042892,3.67647059 L120.042892,26.7181373 L123.719363,26.7181373 L123.719363,0 L97,0 Z" id="Shape" sketch:type="MSShapeGroup"></path>
        <path d="M3.67647059,97 L0,97 L0,123.718137 L26.7169118,123.718137 L26.7169118,120.041667 L3.67647059,120.041667 L3.67647059,97 Z" id="Shape" sketch:type="MSShapeGroup"></path>
        <path d="M120.042892,120.041667 L97,120.041667 L97,123.718137 L123.719363,123.718137 L123.719363,97 L120.042892,97 L120.042892,120.041667 Z" id="Shape" sketch:type="MSShapeGroup"></path>
        <path d="M85.3,16 L39.1,16 C36.2715729,16 34,18.2715729 34,21.1 L34,103.9 C34,106.728427 36.2715729,109 39.1,109 L85.3,109 C88.1284271,109 90.4,106.728427 90.4,103.9 L90.4,21.1 C90.4,18.2715729 88.1284271,16 85.3,16 Z M85.3,19 C86.4715729,19 87.4,19.9284271 87.4,21.1 L87.4,103.9 C87.4,105.071573 86.4715729,106 85.3,106 L39.1,106 C37.9284271,106 37,105.071573 37,103.9 L37,21.1 C37,19.9284271 37.9284271,19 39.1,19 L85.3,19 Z" id="Path" sketch:type="MSShapeGroup"></path>
    </symbol>


    <symbol id="arrow" viewBox="0 0 20 17">
      <path fill="#FFFFFF" d="M7.869,14.776l-3.824-5.19h15.93c0-1.544,0-1.294,0-2.625H4.044l3.746-5.06
  C7.218,1.228,6.853,0.839,6.214,0.186L0.025,8.273l6.25,8.125C7.372,15.293,6.82,15.854,7.869,14.776z"/>
    </symbol>
</svg>