<?xml version="1.0" encoding="UTF-8" standalone="no"?>
<svg width="14px" height="22px" viewBox="0 0 14 22" version="1.1" xmlns="http://www.w3.org/2000/svg" xmlns:xlink="http://www.w3.org/1999/xlink" xmlns:sketch="http://www.bohemiancoding.com/sketch/ns">
    <!-- Generator: Sketch 3.5.1 (25234) - http://www.bohemiancoding.com/sketch -->
    <title>Icon 24px</title>
    <desc>Created with Sketch.</desc>
    <defs></defs>
    <g id="Page-1" stroke="none" stroke-width="1" fill="none" fill-rule="evenodd" sketch:type="MSPage">
        <g id="Desktop-HD" sketch:type="MSArtboardGroup" transform="translate(-713.000000, -3760.000000)">
            <g id="Icon-24px" sketch:type="MSLayerGroup" transform="translate(708.000000, 3759.000000)">
                <path d="M0,0 L24,0 L24,24 L0,24 L0,0 Z" id="Shape" sketch:type="MSShapeGroup"></path>
                <path d="M17,1.01 L7,1 C5.9,1 5.01,1.9 5.01,3 L5.01,21 C5.01,22.1 5.9,23 7,23 L17,23 C18.1,23 19,22.1 19,21 L19,3 C19,1.9 18.1,1.01 17,1.01 L17,1.01 Z M17,19 L7,19 L7,5 L17,5 L17,19 L17,19 Z" id="Shape" fill="#21D699" sketch:type="MSShapeGroup"></path>
            </g>
        </g>
    </g>
</svg>