<?xml version="1.0" encoding="UTF-8" standalone="no"?>
<svg width="66px" height="36px" viewBox="0 0 66 36" version="1.1" xmlns="http://www.w3.org/2000/svg" xmlns:xlink="http://www.w3.org/1999/xlink" xmlns:sketch="http://www.bohemiancoding.com/sketch/ns">
    <!-- Generator: Sketch 3.5.1 (25234) - http://www.bohemiancoding.com/sketch -->
    <title>icone velo</title>
    <desc>Created with Sketch.</desc>
    <defs></defs>
    <g id="Page-1" stroke="none" stroke-width="1" fill="none" fill-rule="evenodd" sketch:type="MSPage">
        <g id="Desktop-HD" sketch:type="MSArtboardGroup" transform="translate(-687.000000, -3293.000000)" fill="#50E3C2">
            <g id="icone-velo" sketch:type="MSLayerGroup" transform="translate(687.000000, 3293.000000)">
                <path d="M4.06177031,24.1424471 L0.674114063,24.1424471 C0.302020313,24.1424471 -4.21875e-05,23.8396235 -4.21875e-05,23.4648 C-4.21875e-05,23.0912471 0.302020313,22.7875765 0.674114063,22.7875765 L4.06177031,22.7875765 C4.43470781,22.7875765 4.73634844,23.0912471 4.73634844,23.4648 C4.73634844,23.8396235 4.43470781,24.1424471 4.06177031,24.1424471" id="Fill-1" sketch:type="MSShapeGroup"></path>
                <path d="M6.001425,27.5430918 L2.12903438,27.5430918 C1.75651875,27.5430918 1.45487813,27.2402682 1.45487813,26.8654447 C1.45487813,26.4918918 1.75651875,26.1882212 2.12903438,26.1882212 L6.00015938,26.1882212 C6.37351875,26.1882212 6.67431563,26.4918918 6.67431563,26.8654447 C6.67431563,27.2402682 6.37351875,27.5430918 6.001425,27.5430918" id="Fill-4" sketch:type="MSShapeGroup"></path>
                <path d="M6.001425,20.7415906 L2.12903438,20.7415906 C1.75651875,20.7415906 1.45487813,20.4404612 1.45487813,20.0647906 C1.45487813,19.6895435 1.75651875,19.3875671 2.12903438,19.3875671 L6.00015938,19.3875671 C6.37351875,19.3875671 6.67431563,19.6912376 6.67431563,20.0647906 C6.6747375,20.4404612 6.37351875,20.7415906 6.001425,20.7415906" id="Fill-6" sketch:type="MSShapeGroup"></path>
                <g id="pedales" transform="translate(34.000000, 15.000000)" sketch:type="MSShapeGroup">
                    <path d="M3.49085,12.6349129 C2.3956625,12.6349129 1.50888125,11.7438071 1.50888125,10.6455953 C1.50888125,9.54611294 2.3956625,8.65458353 3.49085,8.65458353 C4.58561562,8.65458353 5.47239687,9.54611294 5.47239687,10.6455953 C5.47239687,11.7438071 4.58561562,12.6349129 3.49085,12.6349129 M6.84475625,10.6455953 C6.84475625,9.01670118 5.69345937,7.65759529 4.16331875,7.34587765 L4.16331875,2.82724235 L5.29225625,2.82724235 C5.52977187,2.82724235 5.72299062,2.63284235 5.72299062,2.39481882 L5.72299062,0.721454118 C5.72299062,0.483007059 5.52977187,0.289454118 5.29225625,0.289454118 L1.68817812,0.289454118 C1.4506625,0.289454118 1.25744375,0.483007059 1.25744375,0.721454118 L1.25744375,2.39481882 C1.25744375,2.63284235 1.4506625,2.82724235 1.68817812,2.82724235 L2.81838125,2.82724235 L2.81838125,7.34587765 C1.28824062,7.65759529 0.136521875,9.01500706 0.136521875,10.6455953 C0.136521875,12.2740659 1.28824062,13.6323247 2.81838125,13.9440424 L2.81838125,18.4622541 L1.68817812,18.4622541 C1.4506625,18.4622541 1.25744375,18.6558071 1.25744375,18.8938306 L1.25744375,20.5680424 C1.25744375,20.8073365 1.4506625,21.0000424 1.68817812,21.0000424 L5.29225625,21.0000424 C5.52977187,21.0000424 5.72299062,20.8073365 5.72299062,20.5680424 L5.72299062,18.8938306 C5.72299062,18.6558071 5.52977187,18.4622541 5.29225625,18.4622541 L4.16331875,18.4622541 L4.16331875,13.9440424 C5.69345937,13.6323247 6.84475625,12.2732188 6.84475625,10.6455953" id="Fill-8"></path>
                </g>
                <g id="velo" transform="translate(9.000000, 0.000000)" sketch:type="MSShapeGroup">
                    <path d="M44.7021141,34.41096 C38.9899266,34.41096 34.3455047,29.7466306 34.3455047,24.0150071 C34.3455047,21.4001365 35.3204578,19.0135482 36.9143016,17.1847482 C38.1301453,20.6259247 40.3361297,23.9099718 44.3367703,24.8057365 C44.3844422,24.8167482 44.4338016,24.8222541 44.4827391,24.8222541 C44.7923953,24.8222541 45.0712547,24.6066776 45.1395984,24.2928424 C45.2214422,23.9273365 44.9927859,23.5660659 44.6295516,23.4830541 C41.0073328,22.6732659 39.0586922,19.4256424 38.0052703,16.0992424 C39.8130047,14.5567482 42.1485047,13.6194776 44.7021141,13.6194776 C50.4105047,13.6194776 55.0540828,18.28296 55.0540828,24.0167012 C55.0540828,29.7466306 50.4105047,34.41096 44.7021141,34.41096 M19.6262859,4.20060706 C18.1906453,4.67453647 17.4139734,4.56441882 17.3346609,4.56357176 C17.3283328,4.56357176 17.3274891,4.56441882 17.3283328,4.56611294 C16.7001609,4.24592471 16.6419422,3.91853647 16.6238016,3.80841882 C16.5482859,3.38150118 16.8376922,2.85208941 17.0794266,2.51453647 C20.0814891,3.08460706 23.0253328,3.52634824 23.6383172,3.61740706 C23.8294266,3.72583059 23.8851141,3.80206588 23.8939734,3.80206588 C23.8863797,3.83679529 23.8517859,3.88973647 23.8045359,3.94394824 C21.6272391,3.37430118 19.9380516,4.05999529 19.6262859,4.20060706 M22.8650203,24.0167012 C22.8650203,24.3186776 22.8460359,24.6164188 22.8203016,24.9124659 L12.7788328,24.9234776 L17.4413953,14.8765129 C20.6695828,16.6379718 22.8650203,20.07576 22.8650203,24.0167012 M12.5092547,34.41096 C6.79959844,34.41096 2.15602031,29.7466306 2.15602031,24.0150071 C2.15602031,18.28296 6.80086406,13.6194776 12.5092547,13.6194776 C13.8153797,13.6194776 15.0582234,13.8723247 16.2103641,14.3166071 L11.1086297,25.3063482 C11.0115984,25.5155718 11.0272078,25.7239482 11.1529266,25.9200424 C11.2748484,26.1152894 11.4891609,26.19576 11.7207703,26.19576 L11.7220359,26.19576 L22.6317234,26.2038071 C21.6272391,30.8871953 17.4721922,34.41096 12.5092547,34.41096 M44.7021141,12.2646071 C42.0345984,12.2646071 39.5792859,13.1751953 37.6108172,14.6897365 C36.7434422,11.1731718 36.7729734,7.95011294 36.7755047,7.87514824 L36.7611609,4.05745412 L39.0291609,4.05914824 C39.3750984,4.05914824 39.6505828,3.79190118 39.6885516,3.45519529 C39.7037391,3.42639529 39.7277859,3.40733647 39.7383328,3.37768941 C40.3196766,1.89660706 41.9945203,1.16644235 43.4685516,1.74540706 C44.9463797,2.32691294 45.6745359,4.00790118 45.0948797,5.49110118 C44.8134891,6.20813647 44.2718016,6.77481882 43.5672703,7.08272471 C43.2268172,7.23053647 43.0698797,7.63161882 43.2192234,7.97425412 C43.3297547,8.22921882 43.5790828,8.38041882 43.8385359,8.38041882 C43.9275516,8.38041882 44.0203641,8.36220706 44.1081141,8.32408941 C45.1408641,7.87176 45.9382078,7.04121882 46.3495359,5.98408941 C47.2008797,3.80841882 46.1314266,1.34008941 43.9617234,0.483289412 C41.8557234,-0.345557647 39.4759266,0.648465882 38.5629891,2.70512471 L36.0827859,2.70258353 C35.9039109,2.70258353 35.7317859,2.77373647 35.6060672,2.90121882 C35.4795047,3.02827765 35.4082078,3.20277176 35.4082078,3.38234824 L35.4246609,7.54733647 L20.5404891,7.50032471 L20.5476609,5.36870118 C21.1336453,5.18912471 22.3435828,4.91679529 23.7716297,5.37928941 C23.9703328,5.44620706 24.1854891,5.39750118 24.3584578,5.27848941 C24.4546453,5.21241882 25.3005047,4.59914824 25.2405984,3.72667765 C25.2152859,3.34296 25.0051922,2.79194824 24.1508953,2.36333647 C24.0867703,2.33199529 24.0171609,2.30700706 23.9458641,2.29641882 C23.9112703,2.29048941 20.3957859,1.78013647 16.9380984,1.11096 C16.7102859,1.06860706 16.4816297,1.13976 16.3225828,1.30790118 C16.1922234,1.44512471 15.0594891,2.68352471 15.2932078,4.03754824 C15.3796922,4.54451294 15.6990516,5.25773647 16.8246141,5.81848941 C16.9229109,5.85152471 17.7059109,6.07684235 19.1955516,5.72658353 L19.1896453,7.89971294 L16.7815828,13.0858306 C15.4556297,12.5631953 14.0174578,12.2646071 12.5092547,12.2646071 C6.05752031,12.2646071 0.807707812,17.5371247 0.807707812,24.0150071 C0.807707812,30.49416 6.05752031,35.7641365 12.5092547,35.7641365 C18.2184891,35.7641365 22.9780828,31.6393835 24.0028172,26.2038071 L25.1828016,26.2046541 C25.1515828,26.0225365 25.1351297,25.83576 25.1351297,25.6439012 C25.1351297,25.3914776 25.1638172,25.1466776 25.2161297,24.9090776 L24.1698797,24.9090776 C24.1926609,24.6138776 24.2154422,24.3178306 24.2154422,24.0150071 C24.2154422,19.5315247 21.6993797,15.6295482 18.0109266,13.6474306 L19.8773016,9.62559529 L26.4053953,23.0065835 C26.7576609,22.7270541 27.1647703,22.5144424 27.6102703,22.3945835 L20.9429578,8.72220706 L35.0403328,8.65020706 L29.0826141,22.32936 C29.5407703,22.4111012 29.9634891,22.5847482 30.3360047,22.8312424 L35.5752703,10.8580659 C35.7106922,12.2303012 35.9663484,13.94136 36.4481297,15.6922306 C34.3168172,17.8217365 32.9967703,20.7665365 32.9967703,24.0150071 C32.9967703,30.4937365 38.2474266,35.7632894 44.7021141,35.7632894 C51.1530047,35.7632894 56.4049266,30.4937365 56.4049266,24.0150071 C56.4049266,17.5371247 51.1542703,12.2646071 44.7021141,12.2646071" id="Fill-11"></path>
                </g>
            </g>
        </g>
    </g>
</svg>