<?xml version="1.0" encoding="UTF-8" standalone="no"?>
<svg width="12px" height="11px" viewBox="0 0 12 11" version="1.1" xmlns="http://www.w3.org/2000/svg" xmlns:xlink="http://www.w3.org/1999/xlink" xmlns:sketch="http://www.bohemiancoding.com/sketch/ns">
    <!-- Generator: Sketch 3.3.3 (12072) - http://www.bohemiancoding.com/sketch -->
    <title>Shape-Copy</title>
    <desc>Created with Sketch.</desc>
    <defs></defs>
    <g id="Page-1" stroke="none" stroke-width="1" fill="none" fill-rule="evenodd" sketch:type="MSPage">
        <g id="arrow_left" sketch:type="MSLayerGroup" fill="#FFFFFF">
            <g id="Page-1" sketch:type="MSShapeGroup">
                <g id="iPad-Landscape-Copy-8">
                    <g id="Group">
                        <path d="M0.2314387,6.1502558 L3.8165794,10.2908485 C4.1250262,10.6469101 4.6252848,10.6469101 4.9333169,10.2908485 C5.2417637,9.9349465 5.2417637,9.3572042 4.9333169,9.000983 L2.696387,6.4174217 L10.285946,6.4174217 C10.722083,6.4174217 11.0757189,6.0090121 11.0757189,5.505323 C11.0757189,5.0016339 10.722083,4.5932243 10.285946,4.5932243 L2.696387,4.5932243 L4.9334551,2.009663 C5.2419019,1.653761 5.2419019,1.0758591 4.9334551,0.7197975 C4.77937,0.5418465 4.5770554,0.4526316 4.3750173,0.4526316 C4.1729791,0.4526316 3.9706646,0.5418465 3.8165794,0.7197975 L0.2314387,4.8603903 C-0.0771462,5.2164519 -0.0771462,5.7940346 0.2314387,6.1502558 L0.2314387,6.1502558 L0.2314387,6.1502558 Z" id="Shape-Copy"></path>
                    </g>
                </g>
            </g>
        </g>
    </g>
</svg>