<svg id="Calque_1" data-name="Calque 1" xmlns="http://www.w3.org/2000/svg" viewBox="0 0 442.16 566.93">
  <defs>
    <style>
      .cls-1 {
        fill: #fff;
        opacity: 0.8;
      }
    </style>
  </defs>
  <title>BG ticket</title>
  <path class="cls-1" d="M452.37,297.46V31a17.06,17.06,0,0,0-17-17h-119V33.05A5.94,5.94,0,0,1,310.41,39H152.18a5.94,5.94,0,0,1-5.92-5.92V14h-119a17.06,17.06,0,0,0-17,17V563.92a17.06,17.06,0,0,0,17,17h119V561.87a5.94,5.94,0,0,1,5.92-5.92H310.41a5.94,5.94,0,0,1,5.92,5.92v19.05h119a17.06,17.06,0,0,0,17-17V297.46Z" transform="translate(-10.22 -14)"/>
</svg>
