<?xml version="1.0" encoding="UTF-8" standalone="no"?>
<svg width="61px" height="39px" viewBox="0 0 61 39" version="1.1" xmlns="http://www.w3.org/2000/svg" xmlns:xlink="http://www.w3.org/1999/xlink" xmlns:sketch="http://www.bohemiancoding.com/sketch/ns">
    <!-- Generator: Sketch 3.5 (25232) - http://www.bohemiancoding.com/sketch -->
    <title>logo-louer</title>
    <desc>Created with Sketch.</desc>
    <defs></defs>
    <g id="Page-1" stroke="none" stroke-width="1" fill="none" fill-rule="evenodd" sketch:type="MSPage">
        <path d="M26.827754,28.0906626 L25.555618,28.0897628 C24.4506149,33.8644056 19.3181964,38.2472484 13.1622057,38.2472484 C6.20464426,38.2472484 0.5440625,32.6480993 0.5440625,25.7642463 C0.5440625,18.8812933 6.20464426,13.2794443 13.1622057,13.2794443 C14.7880933,13.2794443 16.3389189,13.5966829 17.7691905,14.151963 L20.3658794,8.64191069 L20.3722483,6.33304354 C18.7659224,6.7047302 17.921589,6.46578878 17.8155924,6.43069004 C16.6018633,5.83491141 16.2574881,5.07713861 16.1642293,4.53850793 C15.9122031,3.09990955 17.133211,1.78415677 17.2742365,1.638362 C17.4457417,1.45971841 17.6923088,1.38412112 17.9379662,1.42911951 C21.6660436,2.140094 25.4569001,2.68232454 25.4942037,2.68862431 C25.5710853,2.69987391 25.6461473,2.72642296 25.7152953,2.75972176 C26.6360553,3.21510542 26.862606,3.80053441 26.8903561,4.20821978 C26.9545,5.13518652 26.0428384,5.78676314 25.9391164,5.85696062 C25.7521438,5.98340609 25.5205891,6.03515423 25.3058664,5.96405678 C23.7659589,5.4731244 22.4612455,5.76201403 21.8293602,5.95280718 L21.8211717,8.21757592 L37.8712388,8.26752412 L37.8534968,3.84238291 C37.8534968,3.65158976 37.9303785,3.46619641 38.0668548,3.33075127 C38.2028762,3.19530613 38.388029,3.11970884 38.5813704,3.11970884 L41.2558509,3.12240875 C42.2402999,0.93773714 44.8065091,-0.118824947 47.0774746,0.761793453 C49.4166783,1.67211079 50.5703579,4.29461668 49.6523274,6.60618374 C49.2087794,7.72934344 48.3489788,8.61176177 47.2353322,9.09234453 C47.1407087,9.13284307 47.040626,9.15219238 46.9446377,9.15219238 C46.6648613,9.15219238 46.396003,8.99154814 46.2768137,8.72065786 C46.1153168,8.35707091 46.2845474,7.9309362 46.6516686,7.77344185 C47.4113866,7.44630359 47.9955052,6.8442252 48.2989375,6.08240253 C48.9244538,4.50655908 48.1392602,2.72057317 46.545672,2.10274534 C44.9561781,1.48761741 43.1501418,2.26383956 42.5232607,3.83698311 C42.5118877,3.86893196 42.4859572,3.88918123 42.46958,3.91978014 C42.4290921,4.2775173 42.1315737,4.56145711 41.7585385,4.56145711 L39.3128833,4.55965717 L39.3283507,8.61581163 C39.3256211,8.69545877 39.2933217,12.1198359 40.2286393,15.8560518 C42.3517555,14.2464596 44.9993956,13.2789943 47.875861,13.2789943 C54.8334224,13.2789943 60.4953689,18.8808433 60.4958239,25.7651463 C60.4958239,32.6480993 54.8325126,38.2472484 47.8763159,38.2472484 C40.9160249,38.2472484 35.2540784,32.6480993 35.2540784,25.7651463 C35.2540784,22.3133201 36.6775261,19.1845824 38.9757869,16.9225136 C38.4567221,15.0618303 38.180585,13.2443455 38.0350103,11.7859479 L32.3853467,24.5074414 C32.1353347,24.3444427 31.8641758,24.2112512 31.5759283,24.112966 C32.9931108,24.5963658 34.0112342,25.92854 34.0112342,27.4957842 C34.0112342,29.2255221 32.7697549,30.6690703 31.1197565,31.0007084 L31.1197565,35.8006861 L32.33758,35.8006861 C32.5937005,35.8006861 32.8020543,36.0067788 32.8020543,36.2596697 L32.8020543,38.0384559 C32.8020543,38.2926967 32.5932455,38.4974394 32.33758,38.4974394 L28.4507351,38.4974394 C28.1946146,38.4974394 27.9862608,38.2922467 27.9862608,38.0384559 L27.9862608,36.2596697 C27.9862608,36.0063288 28.1950695,35.8006861 28.4507351,35.8006861 L29.6699233,35.8006861 L29.6699233,31.0007084 C28.2131644,30.7079101 27.0744857,29.5490948 26.827754,28.0906626 Z M26.8115391,27.98515 C26.7889835,27.8251859 26.7770808,27.6618463 26.7770808,27.4948842 C26.7770808,27.2266938 26.8075605,26.9666031 26.8639707,26.7146122 L25.7362216,26.7146122 C25.7607873,26.4009734 25.7848982,26.0864347 25.7848982,25.7646963 C25.7848982,21.0011672 23.0717494,16.855466 19.0943753,14.7495415 L21.1074006,10.4760449 L28.1464026,24.6923853 C27.3126392,25.3473487 26.7779907,26.3590928 26.7779907,27.4957842 C26.7779907,27.6617983 26.7894188,27.8251624 26.8115391,27.98515 Z M29.4457768,24.0424006 L22.2560761,9.5166793 L37.4577156,9.44018205 L31.1197565,23.7782231 L31.1197565,19.1895322 L32.33758,19.1895322 C32.5932455,19.1895322 32.8020543,18.9829896 32.8020543,18.7300987 L32.8020543,16.9522125 C32.8020543,16.6993216 32.5937005,16.493229 32.33758,16.493229 L28.4507351,16.493229 C28.1950695,16.493229 27.9862608,16.6988716 27.9862608,16.9522125 L27.9862608,18.7300987 C27.9862608,18.9829896 28.1946146,19.1895322 28.4507351,19.1895322 L29.6699233,19.1895322 L29.6699233,23.98996 C29.5943244,24.0051342 29.5195822,24.0226407 29.4457768,24.0424006 Z M13.1612959,36.80865 C7.00439534,36.80865 1.99708011,31.8529778 1.99708011,25.7633463 C1.99708011,19.6732649 7.0057601,14.7184926 13.1612959,14.7184926 C14.5697312,14.7184926 15.9099284,14.987583 17.1518627,15.4591661 L11.6505033,27.1353471 C11.5458715,27.3576391 11.5627036,27.5790312 11.6978151,27.7873737 C11.8292873,27.9948162 12.060842,28.0798632 12.3105937,28.0798632 L12.3119584,28.0798632 L24.07576,28.0888629 C22.993503,33.0647843 18.5129863,36.80865 13.1612959,36.80865 Z M24.3282412,25.7651463 C24.3282412,26.0859847 24.3077697,26.4023234 24.2800196,26.7168621 L13.4519904,26.7281117 L18.4797771,16.0540447 C21.9608324,17.9255276 24.3282412,21.5780465 24.3282412,25.7651463 Z M20.8358128,4.71130173 C19.2881716,5.21483366 18.4506621,5.09783786 18.3646821,5.0969379 C18.3578582,5.0969379 18.3569484,5.09783786 18.3578582,5.0996378 C17.6804809,4.75945001 17.6177018,4.41161249 17.5981402,4.29461668 C17.5162544,3.84103296 17.8287851,3.27855314 18.0894549,2.91991601 C21.3262176,3.52559428 24.5011112,3.99492744 25.1621113,4.09167397 C25.3681905,4.20686983 25.4282401,4.28786693 25.4373385,4.28786693 C25.42915,4.3247656 25.3918464,4.38101358 25.3408953,4.4390615 C22.993503,3.83338324 21.1719994,4.56190709 20.8358128,4.71130173 Z M47.875861,36.80865 C41.7162309,36.80865 36.7080058,31.8529778 36.7080058,25.7633463 C36.7080058,22.985146 37.7593282,20.449487 39.4780197,18.5064567 C40.7891019,22.1625755 43.1678837,25.6517503 47.4818994,26.6039162 C47.5333055,26.6151658 47.5865312,26.6214655 47.639302,26.6214655 C47.973214,26.6214655 48.2743717,26.3919738 48.3480689,26.0589857 C48.4363236,25.6706496 48.1893015,25.2863634 47.7980695,25.1986166 C43.8921179,24.3382475 41.7908379,20.8873213 40.6549002,17.3535981 C42.6042366,15.7143069 45.1226792,14.7189426 47.8763159,14.7189426 C54.0318517,14.7189426 59.0391669,19.6741648 59.0391669,25.7655962 C59.038712,31.8529778 54.0313967,36.80865 47.875861,36.80865 Z M30.3559442,29.5873091 C29.1749693,29.5873091 28.2187254,28.6405431 28.2187254,27.4737349 C28.2187254,26.3055769 29.1754242,25.3583609 30.3559442,25.3583609 C31.5364641,25.3583609 32.492708,26.3055769 32.492708,27.4737349 C32.492708,28.6409931 31.5364641,29.5873091 30.3559442,29.5873091 Z" id="logo-louer" fill="#FFFFFF" sketch:type="MSShapeGroup"></path>
    </g>
</svg>